<svg width="286" height="234" viewBox="0 0 286 234" fill="none" xmlns="http://www.w3.org/2000/svg">
<g filter="url(#filter0_d_1_572)">
<path d="M141.542 62.9256V62.197C141.542 61.5359 142.058 61 142.695 61C143.331 61 143.847 61.5359 143.847 62.197V62.9256C143.847 63.5868 143.331 64.1227 142.695 64.1227C142.058 64.1227 141.542 63.5867 141.542 62.9256ZM130.395 66.6683C130.609 67.0526 130.996 67.2674 131.395 67.2674C131.59 67.2674 131.788 67.2157 131.97 67.107C132.521 66.7766 132.71 66.0446 132.392 65.472L132.042 64.841C131.723 64.2683 131.018 64.072 130.467 64.4022C129.916 64.7326 129.727 65.4647 130.045 66.0372L130.395 66.6683ZM153.42 67.107C153.601 67.2158 153.799 67.2675 153.995 67.2675C154.393 67.2675 154.781 67.0527 154.994 66.6687L155.345 66.0378C155.663 65.4652 155.474 64.7331 154.923 64.4026C154.372 64.0723 153.667 64.2684 153.348 64.8409L152.998 65.4718C152.679 66.0443 152.868 66.7763 153.42 67.107ZM162.27 75.859C162.465 75.859 162.664 75.8073 162.845 75.6984L163.453 75.3341C164.004 75.0034 164.193 74.2712 163.874 73.6988C163.556 73.1263 162.851 72.9302 162.3 73.2609L161.692 73.6252C161.141 73.9559 160.952 74.6879 161.271 75.2605C161.484 75.6444 161.871 75.859 162.27 75.859ZM165.266 97.0884C163.769 100.169 159.587 102.239 154.858 102.239C151.617 102.239 148.58 101.268 146.516 99.6055C145.333 100.447 144.085 100.989 142.848 101.155C142.792 101.162 142.735 101.165 142.681 101.164C142.635 101.164 142.588 101.161 142.542 101.155C141.305 100.989 140.056 100.447 138.874 99.6055C136.81 101.268 133.773 102.239 130.532 102.239C125.803 102.239 121.62 100.169 120.124 97.0884C119.959 96.7494 119.959 96.3492 120.124 96.01C121.228 93.7365 123.753 92.0125 126.949 91.2652C125.291 88.8193 124.685 85.9291 125.436 83.4567C125.528 83.1541 125.732 82.9018 126.003 82.7553C127.897 81.7306 130.299 81.6564 132.637 82.5074C132.984 81.3132 133.531 80.2741 134.271 79.4641C134.524 79.187 134.89 79.0522 135.254 79.101C135.859 79.182 136.466 79.3529 137.067 79.6047C138.287 76.928 140.084 74.9319 142.214 73.917C142.519 73.7715 142.87 73.7715 143.175 73.917C145.304 74.9313 147.101 76.9261 148.321 79.6011C148.922 79.3514 149.53 79.1823 150.135 79.101C150.5 79.0522 150.866 79.187 151.119 79.4641C151.859 80.2741 152.405 81.3131 152.752 82.5071C155.091 81.6563 157.492 81.7307 159.386 82.7551C159.657 82.9017 159.861 83.154 159.953 83.4565C160.704 85.929 160.099 88.819 158.44 91.265C161.636 92.0122 164.162 93.7362 165.266 96.0097C165.431 96.3492 165.431 96.7494 165.266 97.0884ZM151.31 93.6928C152.561 93.3699 153.805 92.7047 154.9 91.7504C157.137 89.8011 158.309 86.963 157.875 84.6692C156.521 84.1231 154.832 84.2078 153.168 84.9013C153.328 87.1363 152.94 89.6644 151.981 92.1526C151.777 92.6816 151.553 93.1959 151.31 93.6928ZM139.088 80.771C140.416 81.7527 141.655 83.1115 142.692 84.7369C143.735 83.094 144.972 81.7374 146.297 80.7614C145.409 78.7694 144.139 77.2114 142.695 76.3505C141.249 77.2129 139.976 78.7745 139.088 80.771ZM130.489 91.7503C131.584 92.7047 132.828 93.3702 134.08 93.693C133.837 93.1958 133.613 92.6817 133.409 92.1524C132.45 89.6644 132.062 87.1361 132.222 84.9013C130.557 84.2075 128.869 84.1228 127.514 84.6689C127.08 86.9628 128.252 89.801 130.489 91.7503ZM137.053 98.0181C136.556 97.4995 136.082 96.9269 135.638 96.3083C133.354 96.2678 130.971 95.2955 129.007 93.5843C128.925 93.5123 128.844 93.4397 128.763 93.3659C125.956 93.7271 123.603 94.9288 122.496 96.5489C123.842 98.5149 127.024 99.8449 130.531 99.8449C133.021 99.8449 135.403 99.163 137.053 98.0181ZM142.247 88.9927C141.098 86.0113 139.178 83.5526 137.159 82.3117C137.102 82.284 137.049 82.252 136.999 82.2163C136.521 81.9385 136.039 81.7298 135.561 81.5989C135.084 82.3085 134.764 83.2163 134.604 84.2504C134.6 84.3134 134.591 84.3764 134.577 84.439C134.311 86.4361 134.629 88.8757 135.549 91.2632C136.477 93.6726 137.909 95.7405 139.49 97.1004C139.527 97.128 139.563 97.1582 139.597 97.191C140.454 97.9076 141.351 98.4155 142.234 98.6572C143.651 96.5537 143.679 92.7101 142.247 88.9927ZM149.841 91.263C150.76 88.8765 151.078 86.4376 150.812 84.4408C150.798 84.3767 150.789 84.3121 150.785 84.2476C150.625 83.2145 150.305 82.3076 149.828 81.5985C149.357 81.727 148.882 81.9309 148.41 82.2022C148.347 82.2489 148.279 82.2896 148.207 82.3233C146.639 83.2911 145.126 84.9952 143.986 87.1411C144.127 87.4558 144.261 87.7767 144.387 88.1035C145.694 91.4959 145.941 94.9627 145.184 97.6595C145.389 97.5145 145.594 97.3569 145.796 97.188C145.828 97.1576 145.861 97.1294 145.895 97.1034C147.478 95.7435 148.912 93.6742 149.841 91.263ZM162.894 96.5489C161.786 94.9288 159.433 93.7273 156.626 93.3659C156.546 93.4396 156.464 93.5125 156.382 93.5843C154.418 95.2952 152.036 96.2675 149.752 96.3082C149.307 96.9269 148.833 97.4994 148.337 98.0181C149.987 99.1627 152.368 99.8448 154.858 99.8448C158.365 99.8449 161.548 98.5149 162.894 96.5489ZM153.869 105.402C153.389 104.968 152.661 105.02 152.243 105.519C151.516 106.385 148.073 107.606 142.695 107.606C137.317 107.606 133.874 106.385 133.147 105.519C132.729 105.02 132.001 104.968 131.521 105.402C131.041 105.837 130.991 106.593 131.409 107.091C133.21 109.238 138.614 110 142.695 110C146.776 110 152.18 109.238 153.981 107.091C154.399 106.593 154.349 105.837 153.869 105.402ZM127.542 80.0744C128.154 80.2536 128.792 79.8832 128.964 79.2469C130.687 72.8957 136.333 68.4599 142.695 68.4599C149.056 68.4599 154.702 72.8957 156.425 79.2469C156.569 79.7748 157.031 80.1197 157.534 80.1197C157.638 80.1197 157.743 80.105 157.847 80.0744C158.46 79.8952 158.817 79.234 158.644 78.5977C156.643 71.2191 150.084 66.0658 142.695 66.0658C135.306 66.0658 128.747 71.2192 126.745 78.5977C126.573 79.234 126.929 79.8952 127.542 80.0744ZM142.695 105.977C143.685 105.977 147.008 105.867 148.191 104.456C148.609 103.958 148.558 103.202 148.078 102.767C147.601 102.336 146.877 102.385 146.459 102.877C146.196 103.125 144.831 103.583 142.695 103.583C140.558 103.583 139.193 103.125 138.931 102.876C138.512 102.385 137.789 102.336 137.311 102.768C136.831 103.202 136.781 103.958 137.199 104.456C138.382 105.867 141.705 105.977 142.695 105.977ZM121.937 75.3338L122.544 75.6982C122.725 75.8072 122.924 75.859 123.12 75.859C123.518 75.859 123.905 75.6445 124.119 75.2606C124.437 74.6882 124.249 73.956 123.697 73.6254L123.09 73.2609C122.539 72.9304 121.834 73.1259 121.515 73.6985C121.197 74.2708 121.386 75.003 121.937 75.3338Z" fill="white"/>
</g>
<defs>
<filter id="filter0_d_1_572" x="0" y="-55" width="285.39" height="289" filterUnits="userSpaceOnUse" color-interpolation-filters="sRGB">
<feFlood flood-opacity="0" result="BackgroundImageFix"/>
<feColorMatrix in="SourceAlpha" type="matrix" values="0 0 0 0 0 0 0 0 0 0 0 0 0 0 0 0 0 0 127 0" result="hardAlpha"/>
<feOffset dy="4"/>
<feGaussianBlur stdDeviation="60"/>
<feColorMatrix type="matrix" values="0 0 0 0 1 0 0 0 0 1 0 0 0 0 1 0 0 0 1 0"/>
<feBlend mode="normal" in2="BackgroundImageFix" result="effect1_dropShadow_1_572"/>
<feBlend mode="normal" in="SourceGraphic" in2="effect1_dropShadow_1_572" result="shape"/>
</filter>
</defs>
</svg>
